# xmcd
#
# Track frame offsets: 
#        150
#        8545
#        23799
#        37694
#        52340
#        66217
#        74140
#        87325
#        100634
#        112773
#        125639
#        149809
#        166487
#        185350
#        203680
#        219067
#        237781
#
# Disc length: 3398 seconds
#
# Revision: 7
# Processed by: cddbd v1.5.2PL0 Copyright (c) Steve Scherf et al.
# Submitted via: ExactAudioCopy v1.3
#
DISCID=e80d4411
DTITLE=Blues Brothers - The Blues Brothers Complete [CD 1)
DYEAR=1998
DGENRE=Bluesrock
TTITLE0=I Cant Turn You Loose
TTITLE1=Everybody Needs Somebody To Love
TTITLE2=Gimme Some Lovin
TTITLE3=Think
TTITLE4=Soul Man
TTITLE5=Soul Finger
TTITLE6=Messin With The Kid
TTITLE7=Hey Bartender
TTITLE8=(I Got Everything I Need) Almost
TTITLE9=Rubber Biscuit
TTITLE10=Shotgun Blues
TTITLE11=Groove Me
TTITLE12=I Dont Know
TTITLE13="B" Movie Box Car Blues
TTITLE14=Flip Flop And Fly
TTITLE15=She Caught The Katy
TTITLE16=Peter Gunn Theme
EXTD=
EXTT0=
EXTT1=
EXTT2=
EXTT3=
EXTT4=
EXTT5=
EXTT6=
EXTT7=
EXTT8=
EXTT9=
EXTT10=
EXTT11=
EXTT12=
EXTT13=
EXTT14=
EXTT15=
EXTT16=
PLAYORDER=
